<?xml version="1.0" encoding="UTF-8" standalone="no"?>
<!-- Created with Inkscape (http://www.inkscape.org/) -->

<svg
   xmlns:dc="http://purl.org/dc/elements/1.1/"
   xmlns:cc="http://creativecommons.org/ns#"
   xmlns:rdf="http://www.w3.org/1999/02/22-rdf-syntax-ns#"
   xmlns:svg="http://www.w3.org/2000/svg"
   xmlns="http://www.w3.org/2000/svg"
   xmlns:sodipodi="http://sodipodi.sourceforge.net/DTD/sodipodi-0.dtd"
   xmlns:inkscape="http://www.inkscape.org/namespaces/inkscape"
   width="67.136948mm"
   height="63.919724mm"
   viewBox="0 0 67.136947 63.919722"
   version="1.1"
   id="svg8"
   inkscape:version="0.92.5 (2060ec1f9f, 2020-04-08)"
   sodipodi:docname="Berklee_squared.svg">
  <defs
     id="defs2" />
  <sodipodi:namedview
     id="base"
     pagecolor="#ffffff"
     bordercolor="#666666"
     borderopacity="1.0"
     inkscape:pageopacity="0.0"
     inkscape:pageshadow="2"
     inkscape:zoom="0.83913688"
     inkscape:cx="-389.19224"
     inkscape:cy="223.20225"
     inkscape:document-units="mm"
     inkscape:current-layer="layer1"
     showgrid="false"
     fit-margin-top="1.25"
     fit-margin-left="1.25"
     fit-margin-right="1.25"
     fit-margin-bottom="1.25"
     inkscape:window-width="1920"
     inkscape:window-height="1023"
     inkscape:window-x="0"
     inkscape:window-y="0"
     inkscape:window-maximized="1" />
  <metadata
     id="metadata5">
    <rdf:RDF>
      <cc:Work
         rdf:about="">
        <dc:format>image/svg+xml</dc:format>
        <dc:type
           rdf:resource="http://purl.org/dc/dcmitype/StillImage" />
        <dc:title></dc:title>
      </cc:Work>
    </rdf:RDF>
  </metadata>
  <g
     inkscape:label="Layer 1"
     inkscape:groupmode="layer"
     id="layer1"
     transform="translate(-42.186299,-120.01606)">
    <path
       style="fill:#fc1036;stroke-width:0.36495933"
       inkscape:connector-curvature="0"
       id="path6"
       d="m 92.950711,121.26606 -11.987084,0.02 -11.986726,0.0207 0.0028,6.12949 c 0.0028,5.77512 0.01241,6.14664 0.14969,6.4138 0.180312,0.34927 0.670942,0.64119 1.080604,0.64294 0.201788,8.7e-4 1.755863,-0.52817 4.529154,-1.54181 0,0 2.760256,-1.21556 4.222574,-1.54322 0.235598,-0.0529 0.721373,-0.0654 0.721373,-0.0654 0.223625,-0.007 0.787114,0.0968 1.16189,0.27572 0.923382,0.44066 1.515093,1.22924 1.67866,2.23754 0.05573,0.34298 0.08442,4.11929 0.08483,11.16046 l 7.31e-4,10.64221 h 5.170744 5.170745 v -17.1966 -17.19578 z m -34.391577,7e-4 v 17.19579 17.19579 l 9.399898,-0.0197 9.399168,-0.0208 0.02041,-4.00323 c 0.01103,-2.202 -0.0097,-4.03463 -0.04773,-4.07222 -0.03794,-0.0379 -2.301793,0.74317 -5.071112,1.74995 -4.694473,1.70679 -5.037537,1.81942 -5.56417,1.82336 -0.993564,0.007 -1.883262,-0.45458 -2.424282,-1.25955 -0.535459,-0.79669 -0.501816,0.20265 -0.501816,-14.89544 v -13.69364 h -2.605338 -2.605325 z m 18.535922,15.71261 c -0.16918,-2e-4 -7.874722,2.79332 -8.014136,2.9054 -0.07655,0.0615 -0.09987,0.71897 -0.09987,2.79208 0,2.46245 0.01242,2.71899 0.135455,2.78781 0.07448,0.0417 0.173512,0.0638 0.220259,0.0493 0.768424,-0.24055 7.313785,-2.66089 7.496635,-2.77212 0.141593,-0.0861 0.321657,-0.30366 0.40773,-0.49329 0.140214,-0.30888 0.153787,-0.54429 0.1554,-2.64879 0.0014,-2.35013 -0.0291,-2.61998 -0.301518,-2.62031 z" />
    <path
       d="m 64.018403,169.0914 c -1.188559,-0.26906 -2.075467,-1.15358 -2.418234,-2.41176 -0.153993,-0.56525 -0.141092,-1.85086 0.02466,-2.45842 0.350837,-1.28593 1.200148,-2.15873 2.392437,-2.45861 0.275272,-0.0692 0.549036,-0.0881 1.017057,-0.0702 0.574912,0.022 0.683391,0.0444 1.060607,0.21829 0.728449,0.33586 1.243777,0.99372 1.447506,1.84795 0.0955,0.40042 0.133763,1.50712 0.05643,1.63224 -0.03116,0.0504 -0.655875,0.0682 -2.392517,0.0682 h -2.350343 v 0.30745 c 0,0.58327 0.272362,1.32894 0.637142,1.74442 0.250036,0.28477 0.782954,0.54837 1.255816,0.62116 0.546999,0.0842 1.221368,-0.0344 1.78014,-0.31319 0.226803,-0.11314 0.435239,-0.19157 0.463179,-0.1743 0.09721,0.0601 0.404494,0.733 0.372638,0.81603 -0.04174,0.10875 -0.779593,0.45564 -1.225256,0.57602 -0.49186,0.13287 -1.644541,0.16254 -2.12132,0.0546 z m 2.27954,-4.93976 c -0.0223,-0.48258 -0.273737,-1.01079 -0.590311,-1.2401 -0.648545,-0.4698 -1.741061,-0.34193 -2.275095,0.2663 -0.237992,0.27106 -0.468179,0.77208 -0.505062,1.09926 l -0.02864,0.25408 1.707617,-0.0154 1.707618,-0.0154 -0.01611,-0.34872 z m 21.868566,4.94531 c -1.693727,-0.39113 -2.58627,-1.63075 -2.58627,-3.59197 0,-0.85072 0.106923,-1.36456 0.420713,-2.02179 0.423385,-0.88683 1.258435,-1.55521 2.182676,-1.74709 0.488499,-0.10141 1.482325,-0.0432 1.871712,0.10971 0.700668,0.27506 1.272511,0.91143 1.513493,1.68428 0.127259,0.40809 0.219456,1.49936 0.150045,1.7759 l -0.03847,0.15322 h -2.354497 c -2.125155,0 -2.358068,0.009 -2.390955,0.095 -0.05321,0.13867 0.07499,0.88474 0.217471,1.26555 0.16011,0.42794 0.650794,0.96425 1.032402,1.12842 0.782134,0.33647 1.737436,0.26371 2.557775,-0.19478 0.141484,-0.0791 0.27977,-0.14378 0.307313,-0.14378 0.02752,0 0.141521,0.18161 0.253307,0.40357 0.192653,0.38256 0.198003,0.40881 0.1027,0.50411 -0.134313,0.13431 -0.720697,0.39645 -1.149295,0.51379 -0.481249,0.13176 -1.64597,0.16848 -2.090151,0.0659 z m 2.224031,-4.93447 c -0.05159,-0.6428 -0.344434,-1.13577 -0.829176,-1.39591 -0.185118,-0.0993 -0.33311,-0.12489 -0.726465,-0.12544 -0.568615,-8e-4 -0.911356,0.12993 -1.263278,0.48185 -0.237272,0.23728 -0.516809,0.80317 -0.572636,1.15927 l -0.03874,0.24701 h 1.729869 1.729869 l -0.02942,-0.3668 z m 4.679941,4.92865 c -0.59502,-0.12931 -1.10495,-0.40838 -1.529659,-0.83708 -0.712574,-0.71933 -0.999753,-1.51382 -0.999753,-2.76569 0,-1.29706 0.305091,-2.12783 1.057088,-2.8784 0.473445,-0.47249 0.850978,-0.69101 1.466186,-0.84862 0.519244,-0.13302 1.526193,-0.0866 1.96511,0.0907 1.009278,0.40757 1.584243,1.33718 1.662877,2.68869 0.0218,0.37471 0.01143,0.65852 -0.02773,0.75811 l -0.06257,0.15917 -2.340949,0.0152 -2.34095,0.0152 -0.01752,0.23962 c -0.04165,0.57023 0.278976,1.41669 0.693789,1.8315 0.725698,0.7257 2.134363,0.79769 3.166263,0.16185 0.09967,-0.0614 0.207179,-0.11165 0.238908,-0.11165 0.07693,0 0.422591,0.65379 0.422591,0.79928 0,0.19407 -0.881537,0.57219 -1.652505,0.70879 -0.462888,0.082 -1.258938,0.0696 -1.70132,-0.0265 z m 2.307692,-4.78815 c 0,-0.34208 -0.206581,-0.93795 -0.410738,-1.1847 -0.292867,-0.35401 -0.580575,-0.47199 -1.158476,-0.47511 -0.427328,-0.002 -0.539009,0.0194 -0.827536,0.16111 -0.522022,0.25634 -0.927601,0.84624 -1.013696,1.47442 l -0.03434,0.25063 h 1.722381 1.722382 v -0.22635 z m -17.597405,4.70137 c -0.38264,-0.081 -0.813063,-0.34391 -1.109608,-0.6777 -0.148002,-0.16659 -0.609096,-0.83992 -1.024623,-1.4963 -0.451405,-0.71302 -0.792241,-1.19411 -0.846718,-1.19515 -0.05016,-9.5e-4 -0.319114,0.23117 -0.597667,0.51583 l -0.506464,0.51758 0.01646,0.65916 0.01646,0.65915 0.247004,0.0438 c 0.135847,0.0241 0.358139,0.0635 0.494003,0.0876 l 0.247004,0.0439 v 0.40656 0.40656 h -1.68542 -1.685419 v -0.40683 -0.40682 l 0.276066,-0.0436 0.552131,-0.0872 0.276066,-0.0436 0.01492,-4.29444 c 0.0099,-2.86332 -0.0048,-4.31826 -0.04456,-4.36589 -0.03355,-0.0404 -0.286861,-0.0894 -0.581553,-0.11248 l -0.522102,-0.0408 v -0.39624 c 0,-0.31718 0.01947,-0.4037 0.09745,-0.43365 0.0536,-0.0206 0.596978,-0.0535 1.207529,-0.0731 l 1.110058,-0.0357 -0.02297,3.40704 c -0.01265,1.87383 -0.0057,3.45201 0.0155,3.50731 0.03043,0.0793 0.281913,-0.14287 1.198296,-1.05839 0.637883,-0.6373 1.159799,-1.19004 1.159799,-1.22835 0,-0.0393 -0.120121,-0.0851 -0.276066,-0.10518 -0.428359,-0.0552 -0.450426,-0.0797 -0.450426,-0.50096 v -0.37142 l 1.652373,-0.0154 c 1.283201,-0.012 1.662798,9.8e-4 1.699072,0.0581 0.08011,0.12621 0.05484,0.61102 -0.03662,0.70249 -0.05244,0.0524 -0.269928,0.10101 -0.566657,0.12655 l -0.481568,0.0414 -0.973479,0.9651 c -0.53541,0.5308 -0.97348,0.98903 -0.97348,1.0183 0,0.0828 1.309897,2.10991 1.666687,2.57931 0.433254,0.57002 0.619467,0.67728 1.239226,0.71371 l 0.494003,0.0291 0.05091,0.39659 c 0.03402,0.26508 0.03074,0.41677 -0.0099,0.45743 -0.08059,0.0806 -1.020628,0.11356 -1.335693,0.0468 z m -26.955701,-0.0744 c -0.01773,-0.0462 -0.02429,-0.23797 -0.01455,-0.42616 l 0.01767,-0.34219 0.23247,-0.0419 c 0.12786,-0.023 0.383037,-0.0576 0.567054,-0.0769 l 0.334592,-0.035 -0.01492,-3.9624 -0.01492,-3.96239 -0.515275,-0.0678 c -0.283395,-0.0373 -0.539749,-0.0922 -0.569647,-0.12213 -0.02991,-0.0299 -0.04649,-0.22172 -0.03685,-0.42625 l 0.01752,-0.37187 2.382833,0.002 c 2.633446,0.003 2.875222,0.0278 3.597269,0.37235 1.118365,0.53374 1.556117,1.90102 0.998562,3.1189 -0.181774,0.39706 -0.55946,0.76176 -1.01232,0.9775 -0.196837,0.0938 -0.357875,0.18899 -0.357875,0.21156 0,0.0226 0.165287,0.0994 0.367294,0.17073 1.068121,0.37708 1.666845,1.19922 1.666845,2.2889 0,1.34363 -0.721967,2.20572 -2.179422,2.60241 -0.435873,0.11864 -0.620288,0.12803 -2.949569,0.15026 -2.128305,0.0203 -2.489143,0.0117 -2.516739,-0.0603 z m 5.117561,-1.11791 c 0.814995,-0.29578 1.133315,-0.75404 1.133315,-1.63163 0,-0.93163 -0.446458,-1.50252 -1.365777,-1.74646 -0.415554,-0.11026 -2.11825,-0.1741 -2.283562,-0.0856 -0.127952,0.0685 -0.128328,0.0738 -0.128328,1.80049 0,0.9525 0.01961,1.75172 0.04359,1.77604 0.02397,0.0243 0.55356,0.0326 1.176891,0.0184 0.90146,-0.0205 1.192739,-0.0474 1.423905,-0.13126 z m -0.35761,-4.57993 c 0.413861,-0.13189 0.70813,-0.35026 0.889792,-0.66024 0.13679,-0.23342 0.164018,-0.35319 0.181959,-0.80042 0.01945,-0.48493 0.0083,-0.55083 -0.143118,-0.84524 -0.331443,-0.64444 -0.843702,-0.82568 -2.263797,-0.80099 l -0.922574,0.016 -0.01635,1.48201 c -0.009,0.8151 -0.0011,1.54415 0.01749,1.62014 l 0.03383,0.13813 0.970516,-0.0298 c 0.638756,-0.0196 1.066825,-0.0605 1.252218,-0.11961 z m 10.814295,5.69382 c -0.01688,-0.044 -0.02275,-0.23398 -0.01302,-0.4222 l 0.01767,-0.34221 0.276065,-0.0436 0.552132,-0.0872 0.276066,-0.0436 0.01513,-2.5505 c 0.0109,-1.83469 -0.0033,-2.57278 -0.05071,-2.62985 -0.04498,-0.0542 -0.206369,-0.0796 -0.509163,-0.0802 -0.243813,-4.8e-4 -0.47736,-0.0225 -0.518953,-0.0489 -0.05249,-0.0333 -0.07029,-0.16141 -0.05812,-0.4183 l 0.01754,-0.37032 0.203414,-0.0418 c 0.111879,-0.023 0.648016,-0.0502 1.191416,-0.0603 l 0.988006,-0.0184 0.0055,0.53819 c 0.0032,0.29602 0.01826,0.55102 0.03392,0.56666 0.01566,0.0157 0.127693,-0.11561 0.248968,-0.2917 0.254772,-0.36992 0.664076,-0.69123 1.046557,-0.82153 0.310911,-0.10594 1.145512,-0.0917 1.258674,0.0215 0.0554,0.0554 0.04752,0.17172 -0.03662,0.54004 -0.14144,0.61929 -0.170391,0.65508 -0.463787,0.57346 -0.520778,-0.14486 -1.069391,0.0505 -1.582338,0.56346 -0.538479,0.53848 -0.537288,0.53271 -0.537738,2.61066 -2.33e-4,0.99092 0.02016,1.83401 0.04524,1.87354 0.0264,0.0416 0.288369,0.097 0.621822,0.13163 0.316891,0.0329 0.598063,0.0816 0.624813,0.10838 0.02672,0.0267 0.04075,0.21596 0.03111,0.4205 l -0.01752,0.37187 -1.817684,0.0154 c -1.49992,0.0127 -1.823055,0.001 -1.848402,-0.0646 z m 13.378103,-0.0136 c -0.05101,-0.13287 -0.0417,-0.62163 0.01349,-0.70857 0.0362,-0.0571 0.762369,-0.18398 1.07037,-0.18707 0.02418,-2.3e-4 0.03725,-1.96847 0.02905,-4.37382 l -0.01487,-4.37329 -0.494003,-0.0439 c -0.2717,-0.0241 -0.526705,-0.056 -0.566657,-0.0708 -0.105452,-0.0391 -0.09718,-0.69339 0.0099,-0.78227 0.05609,-0.0465 0.448441,-0.0721 1.22441,-0.0798 l 1.14186,-0.0113 -0.0061,4.86303 -0.0061,4.86303 0.336338,0.0367 c 0.184975,0.0202 0.427857,0.0558 0.539749,0.0791 l 0.203411,0.0424 0.01709,0.41937 0.01709,0.41936 h -1.73987 c -1.532914,0 -1.744077,-0.0109 -1.775139,-0.0919 z"
       id="path8"
       inkscape:connector-curvature="0"
       style="fill:#4c5960;stroke-width:0.26458284" />
    <path
       d="m 65.081213,182.61936 c -0.380497,-0.10674 -0.825472,-0.34242 -1.002742,-0.53112 l -0.130831,-0.13927 0.150293,-0.15029 0.150294,-0.15029 0.296015,0.23399 c 0.407669,0.32223 0.799305,0.44818 1.373582,0.44167 1.05849,-0.012 1.598239,-0.62902 1.598239,-1.82703 0,-0.33909 -0.02223,-0.52088 -0.06373,-0.52088 -0.03503,0 -0.183149,0.10512 -0.329114,0.2336 -0.731466,0.64386 -2.049247,0.50279 -2.767801,-0.29631 -0.672014,-0.74744 -0.672014,-1.85869 0,-2.60614 0.718448,-0.79909 2.036229,-0.94017 2.767801,-0.29631 0.14596,0.12848 0.292549,0.23361 0.325781,0.23361 0.03318,0 0.06843,-0.11116 0.07825,-0.24701 0.01736,-0.24013 0.02355,-0.247 0.221286,-0.247 h 0.203412 l 0.01603,1.91791 c 0.0097,1.16099 -0.0086,2.07846 -0.04635,2.32473 -0.114934,0.74938 -0.602799,1.39269 -1.209117,1.59438 -0.346286,0.11519 -1.269865,0.13318 -1.631338,0.0318 z m 1.552413,-2.55179 c 1.2147,-0.62088 1.204223,-2.29095 -0.01836,-2.92629 -0.234208,-0.1217 -0.369516,-0.15051 -0.697414,-0.14851 -0.484715,0.003 -0.751626,0.1073 -1.103019,0.43119 -0.363643,0.3352 -0.515857,0.68524 -0.515857,1.18636 0,0.50274 0.152304,0.85124 0.520223,1.19039 0.519693,0.47902 1.202687,0.57946 1.814403,0.2668 z m -20.933001,0.63005 c -0.818963,-0.19823 -1.561277,-0.79724 -1.91513,-1.54543 -0.259958,-0.54965 -0.349196,-0.94798 -0.349196,-1.55887 0,-0.94218 0.303238,-1.72791 0.895401,-2.32008 0.586316,-0.58631 1.33363,-0.87714 2.250277,-0.87574 0.737736,0.001 1.344134,0.21575 1.769742,0.62632 0.259783,0.2506 0.268049,0.31483 0.05997,0.46638 l -0.157969,0.11507 -0.280723,-0.25239 c -0.483181,-0.43442 -1.176547,-0.61672 -1.879782,-0.49427 -1.309632,0.22807 -2.172992,1.31458 -2.172992,2.73473 0,1.44399 0.88458,2.5324 2.227893,2.74134 0.734086,0.11413 1.426552,-0.0979 1.993341,-0.61028 l 0.298264,-0.26964 0.152149,0.11968 c 0.08368,0.0658 0.152145,0.15459 0.152145,0.19725 0,0.1141 -0.542871,0.58251 -0.844178,0.72834 -0.603407,0.2921 -1.482616,0.37113 -2.199212,0.19768 z m 5.244297,-0.0535 c -0.90826,-0.29091 -1.434145,-1.10434 -1.374984,-2.12671 0.04686,-0.80952 0.437249,-1.39875 1.14739,-1.73183 0.279822,-0.13125 0.398885,-0.15117 0.903497,-0.15117 0.504613,0 0.623648,0.0199 0.903498,0.15117 0.460003,0.21576 0.72284,0.47096 0.940565,0.91323 0.17644,0.35841 0.190077,0.42797 0.190077,0.96973 0,0.54176 -0.01363,0.61131 -0.190077,0.96972 -0.343217,0.69717 -0.913631,1.04624 -1.756883,1.0751 -0.320595,0.011 -0.588459,-0.0133 -0.763083,-0.0693 z m 1.443511,-0.46892 c 0.564382,-0.27413 0.850449,-0.78255 0.847776,-1.50664 -0.0038,-1.02441 -0.637565,-1.68457 -1.61332,-1.68047 -0.864921,0.004 -1.429647,0.49046 -1.609854,1.38776 -0.0795,0.39587 0.03496,0.94255 0.272493,1.30149 0.431218,0.65161 1.342309,0.86733 2.102905,0.49786 z m 7.950185,0.47898 c -0.396345,-0.13169 -0.585336,-0.25541 -0.864577,-0.566 -0.712098,-0.79203 -0.652408,-2.25168 0.121227,-2.96491 0.416241,-0.38368 0.707785,-0.48893 1.353579,-0.48866 0.485615,2.3e-4 0.587109,0.0188 0.842723,0.15459 0.584807,0.31065 0.933342,0.8718 0.968638,1.55956 l 0.01937,0.37777 -1.656368,0.0291 -1.656368,0.0291 -0.01969,0.13931 c -0.05814,0.41126 0.347159,1.04851 0.825895,1.29849 0.184068,0.0961 0.341392,0.12512 0.675798,0.12458 0.486171,-7.9e-4 0.848438,-0.13583 1.169932,-0.43613 0.210042,-0.19621 0.287496,-0.20667 0.422857,-0.0571 0.09503,0.10501 0.09117,0.11992 -0.08213,0.31731 -0.296042,0.33716 -0.748849,0.51626 -1.365353,0.54002 -0.332157,0.0128 -0.607906,-0.008 -0.755543,-0.0571 z m 1.948494,-2.33616 c 0.18796,-0.22648 -0.249761,-0.94081 -0.726994,-1.18642 -0.38137,-0.19626 -0.933448,-0.20397 -1.287063,-0.018 -0.45794,0.24085 -0.922257,0.9248 -0.815921,1.20187 0.05211,0.13579 2.717531,0.13816 2.829978,0.003 z m 8.222177,2.33616 c -0.396345,-0.13169 -0.585337,-0.25541 -0.864577,-0.566 -0.712099,-0.79203 -0.652409,-2.25168 0.121231,-2.96491 0.416242,-0.38368 0.707786,-0.48893 1.35358,-0.48866 0.485615,2.3e-4 0.587109,0.0188 0.842723,0.15459 0.584807,0.31065 0.933342,0.8718 0.968638,1.55956 l 0.01937,0.37777 -1.656368,0.0291 -1.656368,0.0291 -0.01968,0.13931 c -0.05814,0.41126 0.347186,1.04851 0.825895,1.29849 0.184071,0.0961 0.341392,0.12512 0.675824,0.12458 0.486171,-7.9e-4 0.848438,-0.13583 1.169933,-0.43613 0.210042,-0.19621 0.287495,-0.20667 0.422856,-0.0571 0.09503,0.10501 0.09117,0.11992 -0.08213,0.31731 -0.296042,0.33716 -0.748849,0.51626 -1.365354,0.54002 -0.332157,0.0128 -0.607905,-0.008 -0.755543,-0.0571 z m 1.948494,-2.33616 c 0.18796,-0.22648 -0.249761,-0.94081 -0.726994,-1.18642 -0.38137,-0.19626 -0.933449,-0.20397 -1.287064,-0.018 -0.45794,0.24085 -0.922256,0.9248 -0.81592,1.20187 0.05212,0.13579 2.71753,0.13816 2.829978,0.003 z m 5.163334,2.32613 c -0.90826,-0.29091 -1.434145,-1.10434 -1.374957,-2.12672 0.04688,-0.80952 0.437223,-1.39874 1.14739,-1.73182 0.279822,-0.13126 0.398885,-0.15118 0.903471,-0.15118 0.504612,0 0.623648,0.0199 0.903471,0.15118 0.460003,0.21575 0.72284,0.47095 0.940592,0.91323 0.176439,0.3584 0.190071,0.42796 0.190071,0.96972 0,0.54176 -0.01365,0.61132 -0.190071,0.96972 -0.343217,0.69718 -0.913658,1.04624 -1.756883,1.07511 -0.320595,0.011 -0.588459,-0.0133 -0.763084,-0.0693 z m 1.443511,-0.46892 c 0.564382,-0.27413 0.850449,-0.78256 0.847777,-1.50664 -0.0037,-1.02441 -0.637566,-1.68457 -1.613321,-1.68047 -0.864895,0.004 -1.429647,0.49045 -1.609854,1.38776 -0.07951,0.39587 0.03498,0.94255 0.272494,1.30148 0.431217,0.65162 1.342308,0.86733 2.102904,0.49787 z m 15.978423,0.47141 c -0.294057,-0.10483 -0.545834,-0.3465 -0.698419,-0.6704 -0.11376,-0.24147 -0.124666,-0.37661 -0.142118,-1.76183 l -0.01889,-1.50032 0.222318,0.0183 0.222324,0.0183 0.02905,1.45295 c 0.03085,1.54175 0.03805,1.58218 0.338507,1.90431 0.389651,0.4177 1.292858,0.3121 1.726165,-0.20179 0.321548,-0.38134 0.344937,-0.49803 0.376263,-1.87685 l 0.02905,-1.27859 0.217942,-0.018 0.217942,-0.018 v 1.89235 c 0,1.04079 0.0065,1.91195 0.01455,1.93592 0.008,0.024 -0.08355,0.0517 -0.203417,0.0616 l -0.217942,0.018 v -0.26161 c 0,-0.14389 -0.02646,-0.27797 -0.05883,-0.29798 -0.03233,-0.02 -0.175604,0.0804 -0.31832,0.22313 -0.155554,0.15555 -0.368934,0.29678 -0.532711,0.35259 -0.331575,0.11297 -0.898391,0.11672 -1.203482,0.008 z m 4.456898,0.005 c -0.437831,-0.14291 -0.83251,-0.44942 -0.83251,-0.64656 0,-0.0339 0.07443,-0.10568 0.165402,-0.15942 0.162681,-0.0961 0.168174,-0.0948 0.334168,0.08 0.266197,0.28022 0.586051,0.41815 0.982421,0.4236 0.40907,0.006 0.683,-0.12672 0.88612,-0.42812 0.16346,-0.24257 0.16667,-0.4648 0.01,-0.66448 -0.17038,-0.2166 -0.40812,-0.32657 -1.01864,-0.47119 -0.902095,-0.2137 -1.242852,-0.50752 -1.242852,-1.07172 0,-0.65961 0.53922,-1.10813 1.332252,-1.10813 0.45109,0 0.78409,0.10501 1.04719,0.33023 0.27271,0.23342 0.29848,0.37814 0.0847,0.47553 -0.13681,0.0623 -0.17242,0.0497 -0.37447,-0.13283 -0.51704,-0.46713 -1.371568,-0.3755 -1.600141,0.17155 -0.212386,0.50831 0.138742,0.792 1.254021,1.01322 0.70992,0.14081 1.04674,0.48603 1.04515,1.07134 -0.001,0.45945 -0.16289,0.75422 -0.54224,0.98875 -0.2454,0.15172 -0.34289,0.1754 -0.7839,0.19039 -0.313373,0.0106 -0.595313,-0.0128 -0.746336,-0.0621 z m 6.541021,-0.0106 c -0.90154,-0.2776 -1.4342,-1.10021 -1.37499,-2.12338 0.0314,-0.54295 0.27467,-1.09738 0.611,-1.39269 0.72478,-0.63634 1.93921,-0.69183 2.6262,-0.11995 0.21272,0.17707 0.21652,0.30107 0.0126,0.41021 -0.0926,0.0496 -0.14759,0.0348 -0.27934,-0.0752 -0.39217,-0.32731 -0.77968,-0.42904 -1.2569,-0.32999 -0.64482,0.13387 -1.07336,0.56637 -1.24323,1.25474 -0.14649,0.59364 0.0221,1.22446 0.43837,1.64078 0.56917,0.56917 1.49865,0.60545 2.05964,0.0804 0.17254,-0.16148 0.28596,-0.14196 0.41537,0.0715 0.0509,0.084 0.0259,0.13278 -0.14017,0.27297 -0.44164,0.37287 -1.23697,0.50511 -1.86856,0.31064 z m -50.979827,-0.0613 c -0.02283,-0.0228 -0.0415,-1.45928 -0.0415,-3.19219 0,-3.42979 -0.0088,-3.33956 0.319378,-3.25728 l 0.146542,0.0368 -0.01503,3.20992 -0.01503,3.20992 -0.176442,0.0173 c -0.09704,0.009 -0.19512,-0.001 -0.217942,-0.0242 z m 2.150371,0 c -0.02283,-0.0228 -0.0415,-1.45928 -0.0415,-3.19219 0,-3.42979 -0.0088,-3.33956 0.319378,-3.25728 l 0.146542,0.0368 -0.01503,3.20992 -0.01503,3.20992 -0.176445,0.0173 c -0.09704,0.009 -0.195116,-0.001 -0.217942,-0.0242 z m 24.7168,-1.67137 c 0,-1.3195 -0.01693,-1.72145 -0.07466,-1.76931 -0.04106,-0.0341 -0.230668,-0.07 -0.421348,-0.0798 -0.32631,-0.0168 -0.346709,-0.0263 -0.346709,-0.1631 0,-0.13675 0.02037,-0.14634 0.346709,-0.1631 0.190685,-0.01 0.380285,-0.0457 0.421348,-0.0798 0.05383,-0.0447 0.07476,-0.27482 0.07499,-0.82492 5.3e-4,-0.88312 0.05239,-1.12246 0.307049,-1.4125 0.236616,-0.2695 0.47691,-0.36774 0.896698,-0.36663 0.41722,0.001 0.509639,0.0528 0.458601,0.2562 -0.03646,0.14522 -0.053,0.15154 -0.312975,0.11951 -0.366024,-0.0451 -0.642592,0.0962 -0.793458,0.40528 -0.149499,0.30631 -0.212359,1.70884 -0.08146,1.81748 0.04524,0.0375 0.264192,0.0761 0.486621,0.0857 0.387958,0.0168 0.404415,0.0234 0.404415,0.16276 0,0.13939 -0.01646,0.146 -0.404415,0.16276 -0.222424,0.01 -0.438175,0.0455 -0.479477,0.0798 -0.05823,0.0483 -0.07507,0.44529 -0.07507,1.76966 v 1.70738 h -0.203411 -0.203416 v -1.70738 z m 4.619352,1.63825 c -0.01603,-0.0419 -0.02238,-1.39692 -0.01408,-3.01122 l 0.01513,-2.93502 h 0.396927 0.396927 l 1.088944,2.49909 c 0.689661,1.58277 1.118735,2.4991 1.170197,2.4991 0.05149,0 0.480297,-0.91612 1.169773,-2.4991 l 1.088494,-2.49909 0.381052,-0.0172 0.381053,-0.0172 v 3.02471 3.02471 h -0.231881 -0.23188 l -0.01513,-2.625 c -0.01069,-1.85899 -0.03392,-2.63128 -0.07961,-2.64663 -0.03672,-0.0122 -0.446642,0.86066 -0.952869,2.0293 -1.447427,3.34115 -1.401204,3.2422 -1.51254,3.2422 -0.103394,0 -0.11311,-0.0208 -1.816044,-3.8899 -0.329644,-0.74901 -0.630607,-1.37223 -0.668786,-1.38496 -0.05296,-0.0177 -0.07298,0.60098 -0.08453,2.61136 l -0.01513,2.63447 -0.218408,0.0181 c -0.140515,0.0116 -0.228827,-0.009 -0.247597,-0.0581 z m 16.331114,-2.7e-4 c -0.0162,-0.0423 -0.0226,-0.91352 -0.0141,-1.93613 l 0.0153,-1.85925 h 0.20341 0.20341 v 1.9179 1.91791 l -0.18928,0.0182 c -0.11753,0.0113 -0.20046,-0.0109 -0.21878,-0.0586 z m -0.0513,-5.28716 c -0.051,-0.0728 -0.0928,-0.17307 -0.0928,-0.22278 0,-0.0497 0.0417,-0.14997 0.0928,-0.22281 0.13168,-0.18801 0.42378,-0.15424 0.54473,0.063 0.0799,0.14352 0.0799,0.17614 0,0.31965 -0.12096,0.21722 -0.41305,0.25099 -0.54473,0.063 z"
       id="path4175"
       inkscape:connector-curvature="0"
       style="fill:#7c8d98;stroke-width:0.26458284" />
  </g>
</svg>
